{"title":"D.O.A.(1950)MP-4[DaScubaDude]","uid":12964848,"size":857872123,"categoryP":"video","categoryS":"movies","magnet":"?xt=urn:btih:c9769abc861532dab5b1d11f20bdcf4bc288c774&amp;dn=D.O.A.%281950%29MP-4%5BDaScubaDude%5D&amp;tr=udp%3A%2F%2Ftracker.leechers-paradise.org%3A6969&amp;tr=udp%3A%2F%2Fzer0day.ch%3A1337&amp;tr=udp%3A%2F%2Fopen.demonii.com%3A1337&amp;tr=udp%3A%2F%2Ftracker.coppersurfer.tk%3A6969&amp;tr=udp%3A%2F%2Fexodus.desync.com%3A6969","seeders":0,"leechers":0,"uploader":"dascuba","files":1,"time":1449881092,"description":"Frank Bigelow, told he's been poisoned and has only a few days to live, tries to find out who killed him and why.\r\nDirector: Rudolph Maté\r\nWriters: Russell Rouse (story), Clarence Greene (story) | 2 more credits »\r\nStars: Edmond O'Brien, Pamela Britton, Luther Adler\r\n\r\nGeneral\r\nComplete name                            : D.O.AD.O.A..mp4\r\nFormat                                   : MPEG-4\r\nFormat profile                           : Base Media / Version 2\r\nCodec ID                                 : mp42\r\nFile size                                : 818 MiB\r\nDuration                                 : 1h 23mn\r\nOverall bit rate mode                    : Variable\r\nOverall bit rate                         : 1 368 Kbps\r\nEncoded date                             : UTC 2036-02-06 06:28:16\r\nTagged date                              : UTC 2036-02-06 06:28:16\r\nWriting application                      : HandBrake 0.10.2 2015060900\r\n\r\nVideo\r\nID                                       : 1\r\nFormat                                   : AVC\r\nFormat/Info                              : Advanced Video Codec\r\nFormat profile                           :   \r\nFormat settings, CABAC                   : Yes\r\nFormat settings, ReFrames                : 4 frames\r\nCodec ID                                 : avc1\r\nCodec ID/Info                            : Advanced Video Coding\r\nDuration                                 : 1h 23mn\r\nBit rate                                 : 1 201 Kbps\r\nWidth                                    : 716 pixels\r\nHeight                                   : 480 pixels\r\nDisplay aspect ratio                     : 4:3\r\nFrame rate mode                          : Constant\r\nFrame rate                               : 29.970 fps\r\nColor space                              : YUV\r\nChroma subsampling                       : 4:2:0\r\nBit depth                                : 8 bits\r\nScan type                                : Progressive\r\nBits/(Pixel*Frame)                       : 0.117\r\nStream size                              : 719 MiB (88%)\r\nWriting library                          : x264 core 142 r2479 dd79a61\r\nEncoding settings                        : cabac=1 / ref=1 / deblock=1:0:0 / analyse=0x1:0x111 / me=hex / subme=2 / psy=1 / psy_rd=1.00:0.00 / mixed_ref=0 / me_range=16 / chroma_me=1 / trellis=0 / 8x8dct=0 / cqm=0 / deadzone=21,11 / fast_pskip=1 / chroma_qp_offset=0 / threads=3 / lookahead_threads=1 / sliced_threads=0 / nr=0 / decimate=1 / interlaced=0 / bluray_compat=0 / constrained_intra=0 / bframes=3 / b_pyramid=2 / b_adapt=1 / b_bias=0 / direct=1 / weightb=1 / open_gop=0 / weightp=1 / keyint=300 / keyint_min=30 / scenecut=40 / intra_refresh=0 / rc_lookahead=10 / rc=crf / mbtree=1 / crf=20.0 / qcomp=0.60 / qpmin=0 / qpmax=69 / qpstep=4 / vbv_maxrate=20000 / vbv_bufsize=25000 / crf_max=0.0 / nal_hrd=none / filler=0 / ip_ratio=1.40 / aq=1:1.00\r\nEncoded date                             : UTC 2036-02-06 06:28:16\r\nTagged date                              : UTC 2036-02-06 06:28:16\r\nColor range                              : Limited\r\nColor primaries                          : BT.601 NTSC\r\nTransfer characteristics                 : BT.709\r\nMatrix coefficients                      : BT.601\r\n\r\nAudio\r\nID                                       : 2\r\nFormat                                   : AAC\r\nFormat/Info                              : Advanced Audio Codec\r\nFormat profile                           : LC\r\nCodec ID                                 : 40\r\nDuration                                 : 1h 23mn\r\nBit rate mode                            : Variable\r\nBit rate                                 : 160 Kbps\r\nChannel(s)                               : 2 channels\r\nChannel positions                        : Front: L R\r\nSampling rate                            : 48.0 KHz\r\nCompression mode                         : Lossy\r\nStream size                              : 95.6 MiB (12%)\r\nTitle                                    : Stereo / Stereo\r\nEncoded date                             : UTC 2036-02-06 06:28:16\r\nTagged date                              : UTC 2036-02-06 06:28:16\r\n\r\nMenu\r\nID                                       : 3\r\nCodec ID                                 : text\r\nDuration                                 : 1h 23mn\r\nLanguage                                 : English\r\nEncoded date                             : UTC 2036-02-06 06:28:16\r\nTagged date                              : UTC 2036-02-06 06:28:16\r\n00:00:00.000                             : Chapter 1\r\n00:03:26.540                             : Chapter 2\r\n00:18:00.146                             : Chapter 3\r\n00:24:26.198                             : Chapter 4\r\n00:27:14.066                             : Chapter 5\r\n00:38:41.586                             : Chapter 6\r\n00:57:21.138                             : Chapter 7\r\n01:04:53.990                             : Chapter 8\r\n01:08:28.705                             : Chapter 9\r\n01:12:36.385                             : Chapter 10\r\n01:14:24.393                             : Chapter 11\r\n01:21:07.363                             : Chapter 12\r\n01:23:22.698                             : Chapter 13\r\n01:23:25.334                             : Chapter 14\r\nBit rate mode                            : VBR","torrent":{"xt":"urn:btih:c9769abc861532dab5b1d11f20bdcf4bc288c774","amp;dn":"D.O.A.%281950%29MP-4%5BDaScubaDude%5D","amp;tr":["udp%3A%2F%2Ftracker.leechers-paradise.org%3A6969","udp%3A%2F%2Fzer0day.ch%3A1337","udp%3A%2F%2Fopen.demonii.com%3A1337","udp%3A%2F%2Ftracker.coppersurfer.tk%3A6969","udp%3A%2F%2Fexodus.desync.com%3A6969"],"infoHash":"c9769abc861532dab5b1d11f20bdcf4bc288c774","infoHashBuffer":{"type":"Buffer","data":[201,118,154,188,134,21,50,218,181,177,209,31,32,189,207,75,194,136,199,116]},"announce":[],"urlList":[]}}